<?xml version="1.0" encoding="utf-8"?>
<!-- Generator: Adobe Illustrator 19.0.0, SVG Export Plug-In . SVG Version: 6.00 Build 0)  -->
<svg version="1.1" id="Capa_1" xmlns="http://www.w3.org/2000/svg" xmlns:xlink="http://www.w3.org/1999/xlink" x="0px" y="0px"
	 viewBox="-124 36 50 50" style="enable-background:new -124 36 50 50;" xml:space="preserve">
<style type="text/css">
	.st0{fill:#1C257A;stroke:#FFFFFF;stroke-miterlimit:10;}
	.st1{fill:#FFFFFF;}
</style>
<g id="Capa_1_1_">
	<ellipse id="XMLID_1_" class="st0" cx="-98.9" cy="61" rx="24.3" ry="24.2"/>
	<g id="XMLID_40_">
		<g id="XMLID_41_">
			<path id="XMLID_42_" class="st1" d="M-82.5,56.4l-0.8-0.8l-2.7-7.4c-0.5-1.2-1.7-2.1-3-2.1h-19.7c-1.3,0-2.5,0.8-3,2.1l-2.7,7.3
				l-1.1,1c-1,0.8-1.5,2.1-1.5,3.3v10.8c0,1.8,1.4,3.2,3.2,3.2h2c1.8,0,3.2-1.4,3.2-3.2V69h19v1.6c0,1.8,1.4,3.2,3.2,3.2h2
				c1.8,0,3.2-1.4,3.2-3.2v-11C-81.2,58.3-81.7,57.2-82.5,56.4z M-110.2,48.7c0.2-0.7,0.9-1.1,1.6-1.1H-89c0.7,0,1.3,0.4,1.6,1.1
				l2.4,6.4h-1.8c-0.4-2.9-3.1-4.8-6-4.4c-2.3,0.3-4.1,2.1-4.4,4.4h-15.4L-110.2,48.7z M-88.5,55.1h-7.3c0.4-2,2.4-3.3,4.4-2.9
				C-89.9,52.5-88.8,53.6-88.5,55.1z M-110.2,70.6c0,0.9-0.8,1.7-1.7,1.7h-2c-0.9,0-1.7-0.7-1.7-1.7v-2c0.5,0.3,1.1,0.4,1.7,0.4h3.7
				V70.6z M-82.7,70.6c0,0.9-0.8,1.7-1.7,1.7h-2c-0.9,0-1.7-0.7-1.7-1.7V69h3.7c0.6,0,1.2-0.1,1.7-0.4V70.6L-82.7,70.6z M-84.4,67.5
				h-29.5c-0.9,0-1.7-0.7-1.7-1.6v-6c0-0.8,0.4-1.6,1-2.2l0,0l1-1h29.1l0.7,0.8l0,0c0.6,0.5,0.9,1.3,0.9,2.1v6.3l0,0
				C-82.7,66.8-83.5,67.5-84.4,67.5z"/>
		</g>
	</g>
	<g id="XMLID_35_">
		<g id="XMLID_36_">
			<path id="XMLID_37_" class="st1" d="M-106.8,57.9h-5.8c-0.4,0-0.8,0.3-0.8,0.8v4c0,0.4,0.3,0.8,0.8,0.8h5.8
				c0.4,0,0.8-0.3,0.8-0.8v-4C-106.1,58.3-106.4,57.9-106.8,57.9z M-107.6,61.9h-4.2v-2.4h4.2V61.9z"/>
		</g>
	</g>
	<g id="XMLID_30_">
		<g id="XMLID_31_">
			<path id="XMLID_32_" class="st1" d="M-85.4,57.9h-5.8c-0.4,0-0.8,0.3-0.8,0.8v4c0,0.4,0.3,0.8,0.8,0.8h5.8c0.4,0,0.8-0.3,0.8-0.8
				v-4C-84.7,58.3-85,57.9-85.4,57.9z M-86.2,61.9h-4.2v-2.4h4.2V61.9z"/>
		</g>
	</g>
	<g id="XMLID_27_">
		<g id="XMLID_28_">
			<path id="XMLID_11_" class="st1" d="M-95.3,61.1h-7.4c-0.4,0-0.8,0.3-0.8,0.8s0.3,0.8,0.8,0.8h7.4c0.4,0,0.8-0.3,0.8-0.8
				S-94.9,61.1-95.3,61.1z"/>
		</g>
	</g>
	<g id="XMLID_24_">
		<g id="XMLID_25_">
			<path id="XMLID_2_" class="st1" d="M-95.3,58.7h-7.4c-0.4,0-0.8,0.3-0.8,0.8c0,0.4,0.3,0.8,0.8,0.8h7.4c0.4,0,0.8-0.3,0.8-0.8
				C-94.5,59.1-94.9,58.7-95.3,58.7z"/>
		</g>
	</g>
</g>
<g id="Capa_2">
</g>
</svg>
