<?xml version="1.0" encoding="utf-8"?>
<!-- Generator: Adobe Illustrator 19.0.0, SVG Export Plug-In . SVG Version: 6.00 Build 0)  -->
<svg version="1.1" id="Capa_1" xmlns="http://www.w3.org/2000/svg" xmlns:xlink="http://www.w3.org/1999/xlink" x="0px" y="0px"
	 viewBox="-124 36 50 50" style="enable-background:new -124 36 50 50;" xml:space="preserve">
<style type="text/css">
	.st0{fill:#736625;stroke:#FFFFFF;stroke-miterlimit:10;}
	.st1{fill:#FFFFFF;}
</style>
<g id="Capa_1_1_">
	<ellipse id="XMLID_1_" class="st0" cx="-99" cy="61" rx="24.3" ry="24.2"/>
	<g id="XMLID_34_">
		<g id="XMLID_35_">
			<g id="XMLID_36_">
				<path id="XMLID_44_" class="st1" d="M-83.6,50c-5.2-1.3-10.5-3.3-15.2-5.7c-0.3-0.1-0.6-0.1-0.8,0c-4.9,2.6-9.8,4.4-15.2,5.7
					c-0.3,0.1-0.6,0.4-0.6,0.7V58c0,7.5,3.9,12.4,7.1,15.3c3.5,3.1,7.6,4.7,9.1,4.7s5.6-1.7,9.1-4.7c3.2-2.9,7.1-7.8,7.1-15.3v-7.3
					C-83,50.4-83.2,50.1-83.6,50z M-84.6,58c0,7-3.6,11.6-6.7,14.3c-3.4,3-7.1,4.3-8,4.3c-0.8,0-4.5-1.3-8-4.3
					c-3-2.6-6.7-7.3-6.7-14.3v-6.7c5.1-1.3,9.9-3.1,14.6-5.5c4.6,2.4,9.6,4.3,14.6,5.5V58H-84.6z"/>
				<path id="XMLID_24_" class="st1" d="M-106.3,51.2c-0.2-0.4-0.6-0.5-1-0.4c-1.4,0.5-2.9,1-4.4,1.4c-0.3,0.1-0.6,0.4-0.6,0.7v2.7
					c0,0.4,0.4,0.7,0.8,0.7s0.8-0.3,0.8-0.7v-2.2c1.3-0.4,2.6-0.8,3.9-1.2C-106.4,52-106.1,51.5-106.3,51.2z"/>
				<path id="XMLID_23_" class="st1" d="M-104.8,51.3c0.1,0,0.2,0,0.3-0.1l0,0c0.4-0.2,0.6-0.6,0.4-0.9c-0.2-0.4-0.7-0.5-1.1-0.4
					l0,0c-0.4,0.2-0.6,0.6-0.4,0.9C-105.4,51.2-105.1,51.3-104.8,51.3z"/>
				<path id="XMLID_19_" class="st1" d="M-89.7,67.1c-0.4-0.2-0.9-0.1-1.1,0.2c-0.7,0.9-1.4,1.8-2.3,2.6c-0.7,0.7-1.5,1.3-2.3,1.8
					c-0.4,0.2-0.4,0.7-0.2,1c0.2,0.2,0.4,0.3,0.6,0.3c0.2,0,0.3,0,0.5-0.1c0.9-0.6,1.7-1.3,2.5-2c0.9-0.9,1.8-1.8,2.5-2.8
					C-89.2,67.8-89.3,67.3-89.7,67.1z"/>
				<path id="XMLID_18_" class="st1" d="M-97.2,72.8L-97.2,72.8c-0.4,0.2-0.6,0.7-0.3,1c0.1,0.2,0.4,0.4,0.7,0.4
					c0.1,0,0.3,0,0.4-0.1h0.1c0.4-0.2,0.5-0.6,0.3-1C-96.4,72.7-96.9,72.6-97.2,72.8z"/>
				<path id="XMLID_37_" class="st1" d="M-104.7,59.6c-0.5-0.4-1.1-0.7-1.8-0.7s-1.3,0.2-1.8,0.7c-1,0.9-1,2.4,0,3.3l4.7,4.2
					c0.5,0.4,1.1,0.7,1.8,0.7s1.3-0.2,1.8-0.7l9.9-8.8c1-0.9,1-2.4,0-3.3c-0.5-0.4-1.1-0.7-1.8-0.7s-1.3,0.2-1.8,0.7l-8,7.1
					L-104.7,59.6z M-92.6,56.1c0.2-0.2,0.4-0.3,0.7-0.3s0.5,0.1,0.7,0.3c0.4,0.3,0.4,0.9,0,1.3l-9.9,8.8c-0.2,0.2-0.4,0.3-0.7,0.3
					c-0.3,0-0.5-0.1-0.7-0.3l-4.7-4.2c-0.4-0.3-0.4-0.9,0-1.3c0.2-0.2,0.4-0.3,0.7-0.3s0.5,0.1,0.7,0.3l3.5,3.1
					c0.2,0.1,0.4,0.2,0.6,0.2c0.2,0,0.4-0.1,0.6-0.2L-92.6,56.1z"/>
			</g>
		</g>
	</g>
</g>
<g id="Capa_2">
</g>
</svg>
