<?xml version="1.0" encoding="utf-8"?>
<!-- Generator: Adobe Illustrator 19.0.0, SVG Export Plug-In . SVG Version: 6.00 Build 0)  -->
<svg version="1.1" id="Capa_1" xmlns="http://www.w3.org/2000/svg" xmlns:xlink="http://www.w3.org/1999/xlink" x="0px" y="0px"
	 viewBox="-124 36 50 50" style="enable-background:new -124 36 50 50;" xml:space="preserve">
<style type="text/css">
	.st0{fill:#399F9E;stroke:#FFFFFF;stroke-miterlimit:10;}
	.st1{fill:#FFFFFF;}
	.st2{fill:#FCFCFC;}
</style>
<g id="Capa_1_1_">
	<ellipse id="XMLID_1_" class="st0" cx="-99" cy="61" rx="24.3" ry="24.2"/>
	<g id="XMLID_30_">
		<g id="XMLID_31_">
			<path id="XMLID_32_" class="st1" d="M-104.6,44.3c-2,0-3.7,2.3-3.7,5.1c0,2.8,1.6,5.1,3.7,5.1s3.7-2.3,3.7-5.1
				C-100.9,46.6-102.5,44.3-104.6,44.3z M-104.6,53.1c-1.2,0-2.2-1.7-2.2-3.7s1-3.7,2.2-3.7c1.2,0,2.2,1.7,2.2,3.7
				S-103.4,53.1-104.6,53.1z"/>
		</g>
	</g>
	<g id="XMLID_25_">
		<g id="XMLID_26_">
			<path id="XMLID_27_" class="st2" d="M-94.3,44.3c-2,0-3.7,2.3-3.7,5.1c0,2.8,1.6,5.1,3.7,5.1c2.1,0,3.7-2.3,3.7-5.1
				C-90.7,46.6-92.3,44.3-94.3,44.3z M-94.3,53.1c-1.2,0-2.2-1.7-2.2-3.7s1-3.7,2.2-3.7c1.2,0,2.2,1.7,2.2,3.7S-93.2,53.1-94.3,53.1
				z"/>
		</g>
	</g>
	<g id="XMLID_20_">
		<g id="XMLID_21_">
			<path id="XMLID_22_" class="st1" d="M-87,53.9c-2,0-3.7,2.3-3.7,5.1s1.6,5.1,3.7,5.1s3.7-2.3,3.7-5.1S-85,53.9-87,53.9z
				 M-87,62.7c-1.2,0-2.2-1.7-2.2-3.7s1-3.7,2.2-3.7s2.2,1.7,2.2,3.7S-85.9,62.7-87,62.7z"/>
		</g>
	</g>
	<g id="XMLID_15_">
		<g id="XMLID_16_">
			<path id="XMLID_17_" class="st1" d="M-111.9,53.9c-2,0-3.7,2.3-3.7,5.1s1.6,5.1,3.7,5.1s3.7-2.3,3.7-5.1S-109.8,53.9-111.9,53.9z
				 M-111.9,62.7c-1.1,0-2.2-1.7-2.2-3.7s1-3.7,2.2-3.7c1.2,0,2.2,1.7,2.2,3.7S-110.7,62.7-111.9,62.7z"/>
		</g>
	</g>
	<g id="XMLID_12_">
		<g id="XMLID_13_">
			<path id="XMLID_2_" class="st1" d="M-90.8,64.8l-1.4-0.7c-1-0.4-1.7-1.4-2-2.5l-0.4-1.6c-0.7-2.4-2.7-4-4.9-4s-4.2,1.6-4.8,4
				l-0.4,1.6c-0.3,1.1-1,2.1-2,2.5l-1.4,0.7c-1.9,0.9-3.1,2.9-3.1,5c0,1.7,0.7,3.2,1.9,4.2c1.1,0.9,2.4,1.3,3.8,1l2.1-0.4
				c0.5-0.1,1.1-0.3,1.6-0.5c0.4-0.1,0.5-0.6,0.4-1c-0.1-0.4-0.6-0.5-1-0.4c-0.4,0.1-0.8,0.3-1.2,0.4l-2.1,0.4
				c-1,0.1-1.8-0.1-2.6-0.7c-0.9-0.6-1.4-1.8-1.4-3c0-1.6,0.9-3.1,2.2-3.7l1.4-0.7c1.3-0.7,2.3-1.9,2.8-3.5l0.4-1.6
				c0.4-1.7,1.8-2.9,3.4-2.9c1.6,0,3,1.2,3.4,2.9l0.4,1.6c0.4,1.5,1.5,2.8,2.8,3.5l1.4,0.7c1.3,0.7,2.2,2.1,2.2,3.7
				c0,1.3-0.5,2.4-1.4,3.1c-0.7,0.7-1.7,0.9-2.6,0.7l-2.1-0.4c-0.4-0.1-0.9-0.2-1.2-0.4c-0.3-0.2-0.8,0-1,0.4c-0.2,0.4,0,0.8,0.4,1
				c0.5,0.2,1,0.4,1.6,0.5l2.1,0.4c0.3,0.1,0.6,0.1,0.8,0.1c1.1,0,2.1-0.4,3-1.1c1.2-1,1.9-2.6,1.9-4.3
				C-87.8,67.7-88.9,65.7-90.8,64.8z"/>
		</g>
	</g>
</g>
<g id="Capa_2">
</g>
</svg>
