<?xml version="1.0" encoding="utf-8"?>
<!-- Generator: Adobe Illustrator 19.0.0, SVG Export Plug-In . SVG Version: 6.00 Build 0)  -->
<svg version="1.1" id="Capa_1" xmlns="http://www.w3.org/2000/svg" xmlns:xlink="http://www.w3.org/1999/xlink" x="0px" y="0px"
	 viewBox="-124 36 50 50" style="enable-background:new -124 36 50 50;" xml:space="preserve">
<style type="text/css">
	.st0{fill:#2980B9;stroke:#FFFFFF;stroke-miterlimit:10;}
	.st1{fill:#FFFFFF;}
</style>
<g id="Capa_1_1_">
	<ellipse id="XMLID_1_" class="st0" cx="-99" cy="61" rx="24.3" ry="24.2"/>
	<path id="XMLID_12_" class="st1" d="M-85.4,54.2c2.2-1.9,3.1-4.7,2.6-7.4c0-0.3-0.3-0.5-0.6-0.5c-3-0.5-6.1,0.4-8.2,2.4l-4.8,4.3
		l-2.2-0.2c0.1-0.2,0.1-0.4,0.1-0.6c0-0.5-0.2-1-0.6-1.3c-0.4-0.4-0.9-0.6-1.5-0.6s-1.1,0.2-1.5,0.6l-1.6,1.5l-2.2-0.2
		c0.2-0.7,0.1-1.4-0.5-1.9c-0.8-0.7-2.1-0.7-3,0l-1.7,1.5l-2.8-0.2c-0.2,0-0.4,0-0.5,0.2l-3,2.7c-0.2,0.1-0.2,0.3-0.2,0.5
		s0.2,0.4,0.4,0.5l3.9,1.9c0.1,0,0.2,0.1,0.3,0.1c0.2,0,0.5-0.1,0.6-0.3c0.2-0.3,0-0.7-0.3-0.8l-3.1-1.5l2.2-1.9l15.9,1.4l-6.6,6
		l-3.5-1.6c-0.3-0.2-0.7,0-0.9,0.3c-0.2,0.3,0,0.7,0.3,0.8l3.1,1.5l-1.1,1c-1.1,1-2,2-2.8,3.1l-5.9,0.1c-0.2,0-0.3,0.1-0.5,0.2
		l-1.5,1c-0.2,0.2-0.2,0.4-0.2,0.6c0.1,0.2,0.2,0.4,0.4,0.4l5.5,1.7c-0.3,0.8-0.5,1.6-0.6,2.4c0,0.2,0,0.4,0.2,0.5
		c0.1,0.1,0.3,0.2,0.5,0.2h0.1c0.9-0.1,1.8-0.3,2.7-0.6l1.8,4.9c0.1,0.2,0.3,0.4,0.5,0.4c0.1,0,0.1,0,0.2,0c0.2,0,0.4-0.1,0.5-0.2
		l1.6-1.4c0.1-0.1,0.2-0.3,0.2-0.4l0.1-5.3c1.3-0.7,2.4-1.6,3.5-2.5l1.1-1l6.2,10.7c0.1,0.2,0.3,0.3,0.5,0.3h0.1
		c0.2,0,0.4-0.1,0.5-0.2l3-2.7c0.1-0.1,0.2-0.3,0.2-0.5l-0.3-2.5l1.7-1.5c0.8-0.7,0.8-1.9,0-2.7c-0.6-0.5-1.4-0.7-2.1-0.5l-0.2-2
		l1.6-1.5c0.4-0.4,0.6-0.8,0.6-1.3s-0.2-1-0.6-1.3c-0.4-0.4-0.9-0.6-1.5-0.6c-0.2,0-0.4,0-0.6,0.1l-0.2-2L-85.4,54.2z M-101.1,51.8
		c0.1-0.1,0.3-0.2,0.5-0.2s0.4,0.1,0.5,0.2c0.1,0.1,0.2,0.3,0.2,0.5s-0.1,0.3-0.2,0.4l-1.9-0.2L-101.1,51.8z M-108.3,51.1
		c0.3-0.3,0.7-0.3,1,0s0.3,0.7,0,0.9l0,0l-1.9-0.2L-108.3,51.1z M-115.3,67l0.6-0.6l4.8-0.1c-0.4,0.6-0.7,1.3-1,2L-115.3,67z
		 M-105.1,75.1l-0.6,0.6l-1.5-4c0.8-0.3,1.5-0.6,2.2-0.9L-105.1,75.1z M-101.1,66.7c-1.1,1-2.3,1.8-3.5,2.5c0,0,0,0-0.1,0
		c-1.8,1-3.7,1.7-5.8,2.1c0.8-3.2,2.5-6.1,5.1-8.4l14.8-13.3c1.5-1.4,3.6-2.1,5.7-2.1c0.3,0,0.6,0,0.8,0c0.3,2.2-0.6,4.4-2.3,5.9
		l-13,11.8l0,0L-101.1,66.7z M-89.2,68.4c0.3-0.3,0.7-0.3,1,0s0.3,0.7,0,0.9l-0.9,0.8L-89.2,68.4L-89.2,68.4z M-89.4,61.7
		c0.2,0,0.4,0.1,0.5,0.2c0.1,0.1,0.2,0.3,0.2,0.5s-0.1,0.3-0.2,0.5l-0.8,0.8l-0.2-1.7C-89.7,61.7-89.5,61.7-89.4,61.7z M-89.9,74.1
		l-2.2,1.9l-6-10.3l6.6-6L-89.9,74.1z"/>
</g>
<g id="Capa_2">
</g>
</svg>
