<?xml version="1.0" encoding="utf-8"?>
<!-- Generator: Adobe Illustrator 19.0.0, SVG Export Plug-In . SVG Version: 6.00 Build 0)  -->
<svg version="1.1" id="Capa_1" xmlns="http://www.w3.org/2000/svg" xmlns:xlink="http://www.w3.org/1999/xlink" x="0px" y="0px"
	 viewBox="-124 36 50 50" style="enable-background:new -124 36 50 50;" xml:space="preserve">
<style type="text/css">
	.st0{fill:#B21F66;stroke:#FFFFFF;stroke-miterlimit:10;}
	.st1{fill:#FFFFFF;}
</style>
<g id="Capa_1_1_">
	<ellipse id="XMLID_1_" class="st0" cx="-99" cy="61" rx="24.3" ry="24.2"/>
	<g id="XMLID_50_">
		<ellipse id="XMLID_48_" class="st1" cx="-101.7" cy="67" rx="1" ry="1.1"/>
		<path id="XMLID_51_" class="st1" d="M-87.7,55.8V49c0.1-0.1,0.2-0.3,0.2-0.4v-1.4c0-0.1,0-0.3-0.1-0.4v-0.4c0-0.7-0.4-1.2-1-1.4
			c-0.5-0.7-1.5-0.6-2,0c-0.8-0.2-1.6,0.4-1.7,1.2c0,0,0,0,0,0.3c-0.2,0.1-0.3,0.3-0.3,0.5v1.4c0,0.2,0.1,0.3,0.2,0.4V51l-6.3-6.5
			c-0.2-0.2-0.6-0.2-0.8,0l-4,4.1c-0.9-0.9-2.2-1.1-3.3-0.4c-0.1,0.1-0.3,0.1-0.4,0.1c-1.7-0.2-3.1,1.4-2.9,3.1
			c0,0.2-0.1,0.5-0.3,0.6c-1.6,1-1.9,3.1-0.7,4.5l-3.5,3.6c-0.2,0.2-0.2,0.6,0,0.8l2,2.1c0.2,0.2,0.6,0.2,0.8,0l1.2-1.3v10.6
			c-0.1,0.1-0.1,0.1-0.2,0.2s-0.2,0.2-0.3,0.1c-1.6-0.4-3.1,0.9-3,2.6c0,0.3,0.3,0.5,0.5,0.5h29.2c0.3,0,0.5-0.2,0.5-0.4
			c0.3-1.5-0.6-2.9-2-3.3c-0.1,0-0.3-0.1-0.3-0.2c-0.4-0.5-0.9-0.8-1.5-1v-9.2l1.2,1.3c0.2,0.2,0.6,0.2,0.8,0l2-2.1
			c0.2-0.2,0.2-0.6,0-0.8L-87.7,55.8z M-91.7,48.2v-0.7h3.3v0.7H-91.7z M-90.8,46c0.3,0.1,0.7,0,0.9-0.3c0.2-0.2,0.4-0.2,0.6,0
			c0.1,0.2,0.3,0.3,0.5,0.3s0.3,0.2,0.3,0.5v0.1h-2.8v-0.2C-91.3,46.2-91.1,46-90.8,46z M-91.5,49.2h2.9v5.7l-2.9-3V49.2z
			 M-109.9,52.6c0.5-0.3,0.8-0.9,0.7-1.5c-0.1-1.2,0.8-2.2,1.9-2.1c0.3,0,0.7,0,1-0.2c0.7-0.4,1.6-0.3,2.2,0.3l-6.3,6.5
			C-111.2,54.7-111,53.3-109.9,52.6z M-109.7,60.6l0.9-0.9v11.9c-0.3,0-0.6,0-0.9,0.1V60.6z M-107,57.8V61h-0.9v-2.3L-107,57.8z
			 M-105.1,55.9v0.8c0,0.3,0.2,0.5,0.5,0.5s0.5-0.2,0.5-0.5v-1.8l0.9-0.9v7h-0.9v-1.8c0-0.3-0.2-0.5-0.5-0.5s-0.5,0.2-0.5,0.5V61
			h-0.9v-4.2L-105.1,55.9z M-99.2,64.2c0.3,0,0.5-0.2,0.5-0.5V50.2l0.9,0.9v23.5h-0.9v-8.4c0-0.3-0.2-0.5-0.5-0.5s-0.5,0.2-0.5,0.5
			v8.4h-0.6V61.5c0-0.2-0.1-0.4-0.3-0.5v-9.9l0.9-0.9v13.5C-99.6,64-99.4,64.2-99.2,64.2L-99.2,64.2z M-90.4,58.7V61h-0.9v-3.2
			L-90.4,58.7z M-90.4,61.9v2h-2v-2H-90.4z M-92.4,66.9v-2h2v2H-92.4z M-93.3,61.9v2h-2v-2H-93.3z M-95.2,66.9v-2h2v2H-95.2z
			 M-92.3,67.8v6.9h-0.9v-6.9C-93.2,67.8-92.3,67.8-92.3,67.8z M-91.4,67.8h0.9v6.9h-0.9V67.8z M-92.3,61h-0.9v-5.1l0.9,0.9V61z
			 M-94.1,61H-95v-7l0.9,0.9V61z M-95.9,61.1c-0.1,0.1-0.2,0.3-0.2,0.4v5.7c0,0.2,0.1,0.3,0.2,0.4v2c0,0.3,0.2,0.5,0.5,0.5
			S-95,70-95,69.7v-1.9h0.9v6.9H-95v-3.1c0-0.3-0.2-0.5-0.5-0.5s-0.5,0.2-0.5,0.5v3.1h-0.9V52.1L-96,53L-95.9,61.1L-95.9,61.1z
			 M-101.5,61h-0.9v-7.9l0.9-0.9V61z M-111.4,73.4c0.5,0.1,1-0.1,1.3-0.5c0.1-0.1,0.1-0.2,0.2-0.2l0,0c0.4-0.3,0.9-0.4,1.3-0.2l0,0
			c0.2,0.1,0.3,0.2,0.4,0.4c0.2,0.2,0.4,0.4,0.7,0.4c0.6,0.2,1,0.7,1,1.3h-6.8C-113.1,73.8-112.3,73.2-111.4,73.4z M-105.5,74.7
			c0-1-0.7-1.9-1.7-2.2c-0.1,0-0.2-0.1-0.2-0.1c-0.1-0.2-0.3-0.3-0.5-0.5v-10h6.7v3.6c-1-0.4-2.1,0.3-2.1,1.4s1.1,1.8,2.1,1.4v6.3
			L-105.5,74.7L-105.5,74.7z M-101.1,67c0,0.3-0.3,0.6-0.6,0.6c-0.3,0-0.6-0.3-0.6-0.6s0.3-0.6,0.6-0.6S-101.1,66.6-101.1,67z
			 M-86.9,72.2c0.2,0.3,0.5,0.4,0.8,0.5c0.8,0.2,1.4,1,1.4,1.9h-3v-3C-87.4,71.8-87.1,72-86.9,72.2z M-88.6,74.7h-0.9v-7.2
			c0-0.1,0-0.1,0-0.2v-5.7c0-0.1,0-0.2,0-0.2v-1.7l0.9,0.9V74.7z M-86.1,61.9c-18.2-18.8-8.9-9.2-12.7-13c-0.2-0.2-0.6-0.2-0.8,0
			c-10.6,10.9-8.9,9.2-9.1,9.4c-2.4,2.5,2.3-2.4-3.6,3.7l-1.5-1.5c4.2-4.4,10.1-10.4,14.6-15c1.2,1.3,12.4,12.8,14.6,15L-86.1,61.9z
			"/>
	</g>
</g>
<g id="Capa_2">
</g>
</svg>
