<?xml version="1.0" encoding="utf-8"?>
<!-- Generator: Adobe Illustrator 19.0.0, SVG Export Plug-In . SVG Version: 6.00 Build 0)  -->
<svg version="1.1" id="Capa_1" xmlns="http://www.w3.org/2000/svg" xmlns:xlink="http://www.w3.org/1999/xlink" x="0px" y="0px"
	 viewBox="-124 36 50 50" style="enable-background:new -124 36 50 50;" xml:space="preserve">
<style type="text/css">
	.st0{fill:#B72035;stroke:#FFFFFF;stroke-miterlimit:10;}
	.st1{fill:#FFFFFF;}
</style>
<g id="Capa_1_1_">
	<ellipse id="XMLID_1_" class="st0" cx="-99" cy="61" rx="24.3" ry="24.2"/>
	<g id="XMLID_36_">
		<path id="XMLID_53_" class="st1" d="M-90.5,52.3h-1v-1c0-0.2-0.1-0.3-0.2-0.4l-0.4-0.2c-0.6-0.3-1.2-0.6-1.9-0.8v-3.4
			c0-0.2-0.1-0.3-0.3-0.4c-0.2-0.1-0.4-0.1-0.5,0l-7.3,4.7h-0.1c-1.5-0.9-3.2-1.3-4.9-1.3s-3.4,0.5-4.9,1.3l-0.4,0.2
			c-0.2,0.1-0.2,0.2-0.2,0.4v1h-1c-0.8,0-1.5,0.6-1.5,1.4v17.9c0,0.8,0.7,1.4,1.5,1.4h23.2c0.8,0,1.5-0.6,1.5-1.4V53.8
			C-89,53-89.6,52.3-90.5,52.3z M-94.2,66.2c0.1-0.1,0.2-0.2,0.2-0.4V50.9c0.5,0.2,1,0.4,1.4,0.6l0.1,0.1v18.2
			c-1.4-0.7-3-1.1-4.5-1.1c-0.4,0-0.8,0-1.2,0.1L-94.2,66.2z M-101.6,51.6l6.6-4.2v18.2l-6.6,4.2V51.6z M-111.6,51.6L-111.6,51.6
			c1.4-0.9,3-1.3,4.5-1.3c1.6,0,3.1,0.4,4.4,1.2l0.1,0.1v18.2c-1.4-0.7-3-1.1-4.5-1.1s-3.1,0.4-4.5,1.1V51.6z M-90,71.6
			c0,0.3-0.2,0.5-0.5,0.5h-23.2c-0.3,0-0.5-0.2-0.5-0.5V53.8c0-0.3,0.2-0.5,0.5-0.5h1v17.4c0,0.2,0.1,0.3,0.3,0.4
			c0.2,0.1,0.4,0.1,0.5,0l0.4-0.2c1.3-0.8,2.9-1.2,4.4-1.2c1.6,0,3.1,0.4,4.4,1.2l0.4,0.2l0,0l0,0l0,0h0.1l0,0l0,0l0,0l0,0l0,0l0,0
			h0.1l0,0l0,0l0,0l0,0l0,0l0,0l0,0c0.1,0,0.1,0,0.2,0l0,0l0,0l0,0l0,0l0,0l0,0l0,0h0.1l0.4-0.2c1.3-0.8,2.9-1.2,4.4-1.2
			c1.6,0,3.1,0.4,4.4,1.2l0.4,0.2c0.1,0,0.2,0.1,0.3,0.1s0.2,0,0.2-0.1c0.2-0.1,0.3-0.2,0.3-0.4V53.3h1c0.3,0,0.5,0.2,0.5,0.5
			L-90,71.6L-90,71.6z"/>
		<path id="XMLID_29_" class="st1" d="M-110.6,54.7h7.1v1h-7.1V54.7z"/>
		<path id="XMLID_28_" class="st1" d="M-110.6,62.4h7.1v1h-7.1V62.4z"/>
		<path id="XMLID_26_" class="st1" d="M-110.6,56.7h7.1v1h-7.1V56.7z"/>
		<path id="XMLID_23_" class="st1" d="M-110.6,58.6h2.5v1h-2.5V58.6z"/>
		<path id="XMLID_12_" class="st1" d="M-106.1,58.6h2.5v1h-2.5V58.6z"/>
		<path id="XMLID_10_" class="st1" d="M-110.6,60.5h2.5v1h-2.5V60.5z"/>
		<path id="XMLID_9_" class="st1" d="M-106.1,60.5h2.5v1h-2.5V60.5z"/>
		<path id="XMLID_8_" class="st1" d="M-100.3,53.3l3.5-1.9l0.5,0.8l-3.5,1.9L-100.3,53.3z"/>
		<path id="XMLID_7_" class="st1" d="M-100.3,55.8l3.5-1.9l0.5,0.8l-3.5,1.9L-100.3,55.8z"/>
		<path id="XMLID_6_" class="st1" d="M-100.3,58.2l3.5-1.9l0.5,0.8l-3.5,1.9L-100.3,58.2z"/>
		<path id="XMLID_38_" class="st1" d="M-83.9,48c0-1.1-0.9-1.9-2-1.9c-1,0-1.7,0.6-2,1.5c-1.2,0.2-2.1,1.2-2.1,2.4v1.4h1V50
			c0-0.6,0.4-1.2,1-1.4v23.1c0,0.1,0,0.1,0,0.2l0,0l1,2.9c0.1,0.2,0.3,0.3,0.5,0.3v1h1v-1c0.2,0,0.4-0.1,0.5-0.3l1-2.9l0,0
			c0,0,0-0.1,0-0.2L-83.9,48L-83.9,48z M-86.9,48c0-0.5,0.5-1,1-1c0.6,0,1,0.4,1,1v23.2h-2V48z M-86.7,72.1h1.6l-0.7,1.9h-0.3
			L-86.7,72.1z"/>
	</g>
</g>
<g id="Capa_2">
</g>
</svg>
