<?xml version="1.0" encoding="utf-8"?>
<!-- Generator: Adobe Illustrator 19.0.0, SVG Export Plug-In . SVG Version: 6.00 Build 0)  -->
<svg version="1.1" id="Capa_1" xmlns="http://www.w3.org/2000/svg" xmlns:xlink="http://www.w3.org/1999/xlink" x="0px" y="0px"
	 viewBox="-124 36 50 50" style="enable-background:new -124 36 50 50;" xml:space="preserve">
<style type="text/css">
	.st0{fill:#FF1F5A;stroke:#FFFFFF;stroke-miterlimit:10;}
	.st1{fill:#FFFFFF;}
	.st2{display:none;}
</style>
<g id="Capa_1_1_">
	<ellipse id="XMLID_1_" class="st0" cx="-99" cy="61" rx="24.3" ry="24.2"/>
	<g id="XMLID_70_">
		<g id="XMLID_71_">
			<path id="XMLID_29_" class="st1" d="M-93.7,47.6c-0.4-2.2-2.6-3.8-5.3-3.8c-1.7,0-3.3,0.7-4.3,1.8c-0.2,0.2-0.1,0.6,0.1,0.7
				c0.3,0.2,0.7,0.1,0.9-0.1c0.8-0.9,2-1.4,3.3-1.4c2,0,3.8,1.3,4,2.9c0,0.3,0.3,0.5,0.6,0.5h0.1C-93.9,48.1-93.6,47.9-93.7,47.6z"
				/>
		</g>
	</g>
	<g id="XMLID_67_">
		<g id="XMLID_68_">
			<path id="XMLID_26_" class="st1" d="M-84.6,53.4l-1.9-2.6c-0.1-0.2-0.3-0.3-0.5-0.3h-1.8c-0.3,0-0.6,0.2-0.6,0.5s0.3,0.5,0.6,0.5
				h1.5l1.1,1.6h-25.5l1.1-1.6h0.7c0.3,0,0.6-0.2,0.6-0.5s-0.3-0.5-0.6-0.5h-1c-0.2,0-0.4,0.1-0.5,0.3l-1.9,2.6
				c-0.1,0.2-0.1,0.4,0,0.5s0.3,0.3,0.5,0.3h27.6c0.2,0,0.4-0.1,0.5-0.3C-84.6,53.7-84.5,53.6-84.6,53.4z"/>
		</g>
	</g>
	<g id="XMLID_64_">
		<g id="XMLID_65_">
			<path id="XMLID_23_" class="st1" d="M-87.8,48.6c-0.1-0.1-0.2-0.2-0.4-0.2l-8.6-1.7c-0.2,0-0.3,0-0.5,0.1
				c-0.1,0.1-0.2,0.2-0.3,0.3l-0.6,2.3c-0.1,0.3,0.1,0.6,0.5,0.6c0.3,0.1,0.7-0.1,0.8-0.4l0.5-1.8l7.3,1.4l-1.2,4.1
				c-0.1,0.3,0.1,0.6,0.5,0.6h0.1c0.3,0,0.5-0.2,0.6-0.4l1.3-4.6C-87.6,48.9-87.7,48.7-87.8,48.6z"/>
		</g>
	</g>
	<g id="XMLID_61_">
		<g id="XMLID_62_">
			<path id="XMLID_12_" class="st1" d="M-98.6,49.8l-0.6-4c0-0.1-0.1-0.3-0.2-0.4c-0.1-0.1-0.3-0.1-0.5-0.1l-10.5,1
				c-0.3,0-0.6,0.3-0.5,0.6l1,6.7c0,0.3,0.3,0.5,0.6,0.5c0,0,0,0,0.1,0c0.3,0,0.6-0.3,0.5-0.6l-0.9-6.2l9.3-0.9l0.5,3.5
				c0,0.3,0.4,0.5,0.7,0.5C-98.8,50.4-98.6,50.1-98.6,49.8z"/>
		</g>
	</g>
	<g id="XMLID_58_">
		<g id="XMLID_59_">
			<path id="XMLID_10_" class="st1" d="M-93.7,53.5l-1.2-4.3c0-0.1-0.1-0.3-0.3-0.3c-0.1-0.1-0.3-0.1-0.5-0.1l-10.1,2
				c-0.3,0.1-0.5,0.4-0.5,0.6l0.6,2.2c0.1,0.3,0.4,0.5,0.8,0.4c0.3-0.1,0.5-0.4,0.5-0.6l-0.5-1.7l8.9-1.8l1.1,3.8
				c0.1,0.2,0.3,0.4,0.6,0.4h0.1C-93.8,54.1-93.6,53.8-93.7,53.5z"/>
		</g>
	</g>
	<g id="XMLID_53_">
		<g id="XMLID_54_">
			<path id="XMLID_55_" class="st1" d="M-84.5,53.7c0-0.3-0.3-0.5-0.6-0.5h-27.7c-0.3,0-0.6,0.2-0.6,0.5l-1.3,20.4
				c0,0.1,0.1,0.3,0.2,0.4s0.3,0.2,0.5,0.2h30.1c0.2,0,0.3-0.1,0.5-0.2c0.1-0.1,0.2-0.2,0.2-0.4L-84.5,53.7z M-113.4,73.6l1.2-19.4
				h26.4l1.2,19.4H-113.4z"/>
		</g>
	</g>
	<g id="XMLID_48_">
		<g id="XMLID_49_">
			<path id="XMLID_50_" class="st1" d="M-94.3,55.3c-1,0-1.9,0.7-1.9,1.6c0,0.9,0.8,1.6,1.9,1.6s1.9-0.7,1.9-1.6
				S-93.2,55.3-94.3,55.3z M-94.3,57.4c-0.3,0-0.6-0.2-0.6-0.5s0.3-0.5,0.6-0.5s0.6,0.2,0.6,0.5C-93.6,57.1-93.9,57.4-94.3,57.4z"/>
		</g>
	</g>
	<g id="XMLID_43_">
		<g id="XMLID_44_">
			<path id="XMLID_45_" class="st1" d="M-103.7,55.3c-1,0-1.9,0.7-1.9,1.6c0,0.9,0.8,1.6,1.9,1.6s1.9-0.7,1.9-1.6
				S-102.6,55.3-103.7,55.3z M-103.7,57.4c-0.3,0-0.6-0.2-0.6-0.5s0.3-0.5,0.6-0.5c0.3,0,0.6,0.2,0.6,0.5
				C-103.1,57.1-103.3,57.4-103.7,57.4z"/>
		</g>
	</g>
	<g id="XMLID_34_">
		<g id="XMLID_38_">
			<path id="XMLID_3_" class="st1" d="M-94.3,56.9L-94.3,56.9c-0.4,0-0.7,0.2-0.7,0.5c0,0.1,0,0.1,0,0.2v2.7c0,1.9-1.8,3.4-4.1,3.4
				s-4.1-1.5-4.1-3.4v-2.9c0-0.3-0.3-0.5-0.6-0.5s-0.6,0.2-0.6,0.5v2.9c0,2.5,2.4,4.5,5.3,4.5s5.3-2,5.3-4.5v-2.9
				C-93.6,57.1-93.9,56.9-94.3,56.9z"/>
		</g>
	</g>
</g>
<g id="Capa_2" class="st2">
</g>
</svg>
