<?xml version="1.0" encoding="utf-8"?>
<!-- Generator: Adobe Illustrator 19.0.0, SVG Export Plug-In . SVG Version: 6.00 Build 0)  -->
<svg version="1.1" id="Capa_1" xmlns="http://www.w3.org/2000/svg" xmlns:xlink="http://www.w3.org/1999/xlink" x="0px" y="0px"
	 viewBox="-124 36 50 50" style="enable-background:new -124 36 50 50;" xml:space="preserve">
<style type="text/css">
	.st0{fill:#F3E830;stroke:#FFFFFF;stroke-miterlimit:10;}
	.st1{fill:#FFFFFF;}
</style>
<g id="Capa_1_1_">
	<ellipse id="XMLID_1_" class="st0" cx="-99.2" cy="61" rx="24.3" ry="24.2"/>
	<path id="XMLID_47_" class="st1" d="M-100.6,47.2L-107,46c-0.3,0-0.6,0.1-0.7,0.3c-0.1,0.2-2.4,3.8-3.4,8.4
		c-0.2,1.1-0.3,2.1-0.3,3.1c0,0.8,0.1,1.6,0.3,2.3c0.1,0.2,0.1,0.4,0.2,0.6c0.6,1.6,1.5,2.7,2.7,3.1l-1.4,6.8l-3-0.5
		c-0.8-0.1-1.5,0.2-1.8,0.9c0,0.1-0.1,0.2-0.1,0.3s-0.1,0.2-0.1,0.3c0,0.4,0.1,0.7,0.3,1c0.2,0.3,0.6,0.5,1,0.6l7.3,1.3
		c0.6,0.1,1.3-0.1,1.7-0.6c0.1-0.1,0.2-0.3,0.2-0.4c0.1-0.2,0.1-0.4,0.1-0.6c0-0.3-0.1-0.7-0.3-1c-0.2-0.3-0.6-0.5-1-0.6l-3-0.5
		l1.4-6.8c1.2,0,2.5-0.6,3.6-1.8c0.1-0.1,0.2-0.2,0.3-0.3c0.8-0.9,1.5-2.1,2-3.4c0.3-0.7,0.5-1.4,0.6-2.1c1-4.6,0.4-8.7,0.3-8.9
		C-100.1,47.4-100.3,47.2-100.6,47.2z M-105.3,72.8c0.1,0.1,0.1,0.2,0,0.2c0,0.1,0,0.2-0.1,0.2c-0.1,0.1-0.2,0.2-0.3,0.2l-7.3-1.2
		c-0.1,0-0.2-0.1-0.2-0.1c-0.1-0.1,0-0.2,0-0.3s0-0.2,0.1-0.2c0.1-0.1,0.2-0.1,0.3-0.1l7.3,1.3C-105.4,72.7-105.4,72.8-105.3,72.8z
		 M-106.8,47.3l5.5,1c0.1,1.2,0.4,4.5-0.4,8.1c-0.1,0.3-0.1,0.6-0.2,0.8h-8.2c0-0.7,0.1-1.5,0.3-2.3
		C-109,51.4-107.4,48.3-106.8,47.3z M-102.9,59.6c-0.3,0.6-0.7,1.2-1.2,1.8c-0.7,0.8-1.5,1.3-2.2,1.5c-0.4,0.1-0.8,0.1-1.1,0
		c-0.6-0.2-1.2-0.6-1.6-1.2c-0.5-0.8-0.8-1.6-0.9-2.5c0-0.3-0.1-0.5-0.1-0.8h7.7C-102.5,58.8-102.7,59.2-102.9,59.6z"/>
	<path id="XMLID_21_" class="st1" d="M-102.9,54.3C-102.8,54.3-102.8,54.3-102.9,54.3c0.4,0,0.7-0.2,0.7-0.5
		c0.1-1.2,0.2-2.5,0.1-3.8c0-0.3-0.3-0.6-0.7-0.6c-0.4,0-0.7,0.3-0.6,0.6c0.1,1.2,0,2.5-0.1,3.7C-103.5,54-103.2,54.2-102.9,54.3z"
		/>
	<path id="XMLID_37_" class="st1" d="M-84,71.6c0-0.2-0.1-0.4-0.2-0.6c-0.1-0.2-0.2-0.3-0.4-0.4c-0.4-0.3-0.9-0.4-1.3-0.3l-3,0.5
		l-1.5-6.8c2.6-1,3.8-4.8,2.9-9.2c-1-4.6-3.3-8.2-3.4-8.4c-0.1-0.3-0.4-0.4-0.7-0.4l-6.5,1.1c-0.3,0-0.5,0.3-0.5,0.5
		c0,0.2-0.6,4.3,0.3,8.9c0.9,4.4,3.7,7.6,6.5,7.6l1.5,6.8l-3,0.5c-0.6,0.1-1.1,0.6-1.3,1.1c-0.1,0.3,0,0.7,0.1,1
		c0.1,0.3,0.3,0.6,0.6,0.8c0.4,0.2,0.8,0.3,1.2,0.2l7.3-1.3C-84.4,73.2-83.8,72.4-84,71.6z M-97.3,48.3l5.5-1c0.6,1,2.2,4,3,7.6
		c0,0.2,0.1,0.3,0.1,0.5h-8.4C-97.7,52.2-97.4,49.3-97.3,48.3z M-85.3,72.1c0,0-0.1,0.1-0.2,0.1l-7.3,1.3c-0.1,0-0.2,0-0.3-0.1
		c-0.1-0.1-0.1-0.2-0.1-0.2c0-0.1,0-0.2,0-0.3c0-0.1,0.1-0.1,0.2-0.2l7.3-1.3c0.2,0,0.3,0.1,0.3,0.2C-85.3,71.7-85.2,71.9-85.3,72.1
		z M-91.8,63c-0.6,0-1.1-0.3-1.6-0.6c-0.5-0.3-0.9-0.7-1.2-1.1c-0.2-0.2-0.4-0.5-0.6-0.8c-0.3-0.5-0.7-1.1-0.9-1.7
		c-0.3-0.7-0.6-1.5-0.7-2.2h8.3c0.1,1.1,0,2.2-0.3,3.3c-0.1,0.3-0.2,0.6-0.3,0.9c-0.5,1.1-1.2,1.8-2,2.1C-91.4,62.9-91.6,63-91.8,63
		z"/>
	<path id="XMLID_16_" class="st1" d="M-98.7,44.4c0-0.3-0.3-0.6-0.7-0.6s-0.7,0.3-0.7,0.6v2c0,0.3,0.3,0.6,0.7,0.6s0.7-0.3,0.7-0.6
		V44.4z"/>
	<path id="XMLID_15_" class="st1" d="M-102.1,46c0.1,0.2,0.3,0.3,0.6,0.3c0.1,0,0.2,0,0.3-0.1c0.3-0.2,0.4-0.5,0.2-0.8l-0.8-1.2
		c-0.2-0.3-0.6-0.4-0.9-0.2c-0.3,0.2-0.4,0.5-0.3,0.8L-102.1,46z"/>
	<path id="XMLID_14_" class="st1" d="M-97.5,46.2c0.1,0.1,0.2,0.1,0.3,0.1c0.2,0,0.4-0.1,0.6-0.3l0.8-1.2c0.2-0.3,0.1-0.6-0.2-0.8
		s-0.7-0.1-0.9,0.2l-0.8,1.2C-97.9,45.7-97.8,46.1-97.5,46.2z"/>
	<path id="XMLID_13_" class="st1" d="M-92.3,51.3c0.3,0.6,0.5,1.3,0.7,1.9c0.1,0.3,0.1,0.5,0.4,0.7c0.2,0.1,0.6,0.1,0.8-0.1
		c0.2-0.2,0.3-0.4,0.2-0.6c-0.1-0.3-0.2-0.6-0.3-0.9c-0.1-0.3-0.2-0.6-0.3-1c-0.1-0.2-0.1-0.3-0.2-0.5c0-0.1-0.1-0.2-0.2-0.3
		c-0.2-0.1-0.6-0.1-0.8,0C-92.3,50.8-92.4,51.1-92.3,51.3z"/>
	<path id="XMLID_11_" class="st1" d="M-102.5,56.1c0,0.3-0.3,0.6-0.7,0.6c-0.4,0-0.7-0.3-0.7-0.6c0-0.3,0.3-0.6,0.7-0.6
		C-102.8,55.5-102.5,55.7-102.5,56.1z"/>
	<path id="XMLID_2_" class="st1" d="M-92,48.9c0,0.3-0.3,0.6-0.7,0.6c-0.4,0-0.7-0.3-0.7-0.6c0-0.3,0.3-0.6,0.7-0.6
		C-92.3,48.3-92,48.5-92,48.9z"/>
</g>
<g id="Capa_2">
</g>
</svg>
