<?xml version="1.0" standalone="no"?>
<!DOCTYPE svg PUBLIC "-//W3C//DTD SVG 20010904//EN"
 "http://www.w3.org/TR/2001/REC-SVG-20010904/DTD/svg10.dtd">
<svg version="1.0" xmlns="http://www.w3.org/2000/svg"
 width="512.000000pt" height="512.000000pt" viewBox="0 0 512.000000 512.000000"
 preserveAspectRatio="xMidYMid meet">

<g transform="translate(0.000000,512.000000) scale(0.100000,-0.100000)"
fill="#000000" stroke="none">
<path d="M2362 4889 c-1038 -92 -1889 -852 -2091 -1866 -71 -354 -64 -675 20
-1023 49 -198 169 -502 221 -557 41 -43 118 -16 118 41 0 13 -22 70 -50 127
-144 302 -213 609 -213 949 0 353 71 658 227 975 321 652 942 1097 1675 1201
137 20 426 22 551 5 323 -44 603 -140 864 -295 51 -31 102 -56 112 -56 36 0
65 38 62 78 -3 33 -10 41 -68 80 -91 59 -305 163 -435 210 -312 113 -666 160
-993 131z"/>
<path d="M4048 4295 c-27 -15 -33 -29 -29 -70 1 -11 41 -59 89 -107 73 -74 92
-88 119 -88 41 0 77 42 68 80 -8 33 -163 187 -195 194 -14 3 -37 -1 -52 -9z"/>
<path d="M2366 3954 c-351 -76 -635 -362 -713 -719 -24 -106 -21 -290 6 -399
60 -247 232 -478 441 -592 l51 -28 -94 -28 c-493 -145 -904 -523 -1102 -1012
l-32 -78 -46 53 c-25 30 -54 64 -64 76 -27 33 -64 38 -96 13 -44 -35 -37 -71
30 -153 327 -405 791 -693 1303 -807 238 -53 573 -70 790 -41 750 101 1376
516 1745 1156 342 593 406 1318 173 1960 -82 226 -237 509 -286 522 -33 8 -74
-15 -86 -49 -8 -22 0 -42 57 -139 315 -544 393 -1141 227 -1734 -80 -282 -253
-608 -430 -808 l-43 -49 -32 79 c-62 152 -124 262 -227 400 -214 287 -546 517
-887 616 l-82 24 51 27 c209 114 382 345 441 592 27 110 30 294 6 399 -79 360
-365 646 -720 719 -95 20 -287 20 -381 0z m409 -153 c199 -59 380 -204 473
-379 59 -111 84 -206 90 -338 6 -155 -12 -243 -78 -379 -95 -195 -242 -327
-442 -396 -288 -99 -599 -28 -812 186 -149 148 -226 338 -226 556 0 373 249
678 625 765 86 20 279 12 370 -15z m-15 -1695 c194 -26 348 -74 522 -163 152
-77 266 -161 398 -293 120 -119 226 -264 294 -399 39 -77 108 -259 104 -272
-6 -19 -198 -175 -294 -239 -373 -249 -771 -370 -1224 -370 -457 0 -867 126
-1241 382 -86 58 -271 211 -277 227 -4 13 65 195 104 272 68 135 174 280 294
399 133 133 245 215 400 294 284 146 610 203 920 162z"/>
</g>
</svg>
