<?xml version="1.0" standalone="no"?>
<!DOCTYPE svg PUBLIC "-//W3C//DTD SVG 20010904//EN"
 "http://www.w3.org/TR/2001/REC-SVG-20010904/DTD/svg10.dtd">
<svg version="1.0" xmlns="http://www.w3.org/2000/svg"
 width="512.000000pt" height="512.000000pt" viewBox="0 0 512.000000 512.000000"
 preserveAspectRatio="xMidYMid meet">

<g transform="translate(0.000000,512.000000) scale(0.100000,-0.100000)"
fill="#3d366f" stroke="none">
<path d="M2235 5105 c-462 -60 -885 -237 -1255 -523 -117 -91 -316 -287 -413
-407 -276 -342 -459 -746 -537 -1186 -28 -156 -39 -531 -21 -702 43 -399 182
-790 398 -1122 98 -150 184 -257 318 -394 419 -430 948 -690 1550 -760 134
-16 460 -13 605 4 748 93 1416 512 1833 1150 210 321 344 690 392 1075 20 162
20 477 0 640 -92 742 -510 1412 -1140 1826 -329 216 -695 350 -1085 399 -152
18 -501 18 -645 0z m1700 -1494 c-11 -10 -306 -245 -655 -521 -349 -277 -654
-519 -677 -538 l-42 -34 -673 535 c-370 294 -684 544 -698 555 l-25 21 1395 1
c1360 0 1394 0 1375 -19z m-2205 -730 c469 -373 791 -622 808 -626 17 -3 43 0
60 7 17 7 376 288 798 623 422 336 771 612 776 613 13 6 10 -1935 -3 -1960
-27 -50 32 -48 -1609 -48 -1641 0 -1582 -2 -1609 48 -11 21 -17 1962 -6 1962
3 0 356 -279 785 -619z"/>
</g>
</svg>
