<?xml version="1.0" standalone="no"?>
<!DOCTYPE svg PUBLIC "-//W3C//DTD SVG 20010904//EN"
 "http://www.w3.org/TR/2001/REC-SVG-20010904/DTD/svg10.dtd">
<svg version="1.0" xmlns="http://www.w3.org/2000/svg"
 width="512.000000pt" height="512.000000pt" viewBox="0 0 512.000000 512.000000"
 preserveAspectRatio="xMidYMid meet">

<g transform="translate(0.000000,512.000000) scale(0.100000,-0.100000)"
fill="#3d366f" stroke="none">
<path d="M2246 5105 c-153 -22 -299 -54 -426 -92 -904 -273 -1597 -1038 -1773
-1959 -42 -216 -50 -322 -44 -565 5 -230 21 -356 68 -549 220 -893 921 -1610
1814 -1855 226 -62 343 -77 620 -82 195 -4 278 -1 375 11 453 59 860 224 1215
491 562 423 919 1034 1010 1728 20 157 20 497 0 654 -77 588 -340 1107 -772
1523 -375 362 -821 586 -1353 680 -161 29 -577 37 -734 15z m-194 -1413 c225
-224 408 -414 408 -422 0 -8 -106 -120 -235 -250 -152 -152 -235 -243 -235
-256 0 -36 75 -177 141 -263 83 -111 252 -280 364 -364 100 -76 233 -147 274
-147 21 0 72 46 256 230 147 147 237 230 250 230 24 0 825 -796 825 -820 0 -8
-127 -142 -282 -297 -322 -321 -286 -298 -488 -309 -386 -21 -862 156 -1274
474 -515 398 -897 957 -1007 1471 -28 136 -36 359 -16 475 l16 90 283 283
c156 156 290 283 298 283 8 0 198 -183 422 -408z"/>
</g>
</svg>
