<?xml version="1.0" standalone="no"?>
<!DOCTYPE svg PUBLIC "-//W3C//DTD SVG 20010904//EN"
 "http://www.w3.org/TR/2001/REC-SVG-20010904/DTD/svg10.dtd">
<svg version="1.0" xmlns="http://www.w3.org/2000/svg"
 width="512.000000pt" height="512.000000pt" viewBox="0 0 512.000000 512.000000"
 preserveAspectRatio="xMidYMid meet">

<g transform="translate(0.000000,512.000000) scale(0.100000,-0.100000)"
fill="#3d366f" stroke="none">
<path d="M2235 5105 c-1163 -152 -2076 -1067 -2220 -2225 -20 -162 -20 -478 0
-640 72 -582 336 -1108 761 -1520 376 -365 825 -594 1344 -687 197 -35 550
-44 751 -18 567 71 1061 307 1468 700 429 415 691 936 765 1523 21 163 21 481
0 644 -147 1163 -1064 2079 -2224 2223 -152 18 -501 18 -645 0z m550 -1291
c443 -73 834 -410 979 -844 46 -140 60 -233 60 -400 0 -172 -15 -264 -66 -410
-64 -181 -154 -325 -290 -466 -373 -385 -924 -491 -1424 -273 l-92 40 -323
-85 c-178 -47 -325 -83 -328 -81 -2 3 35 148 83 324 l88 318 -35 69 c-47 93
-90 220 -113 329 -22 110 -25 335 -5 445 102 572 584 1012 1151 1049 119 8
201 4 315 -15z"/>
<path d="M2383 3616 c-271 -52 -502 -193 -663 -408 -143 -190 -210 -394 -210
-642 0 -195 47 -371 140 -530 l40 -69 -51 -188 c-29 -104 -50 -192 -46 -195 3
-3 93 17 199 45 l193 51 85 -44 c310 -161 654 -165 965 -12 297 147 499 409
567 736 27 127 21 364 -12 485 -27 102 -115 281 -179 366 -143 188 -350 326
-580 386 -120 31 -336 40 -448 19z m-161 -483 c8 -10 41 -81 72 -158 66 -159
66 -158 -13 -249 -46 -53 -47 -56 -25 -98 68 -132 227 -278 379 -350 92 -42
107 -38 179 54 38 48 68 77 81 77 11 1 85 -31 164 -69 l144 -70 -5 -65 c-7
-79 -29 -118 -94 -167 -105 -80 -219 -90 -386 -32 -244 84 -414 208 -592 430
-146 183 -196 290 -196 419 0 102 28 173 94 242 l52 53 66 0 c49 0 68 -4 80
-17z"/>
</g>
</svg>
